<?xml version="1.0" encoding="UTF-8"?>
<svg version="1.1" xmlns="http://www.w3.org/2000/svg" width="512" height="512">
<path d="M0 0 C5.05870268 1.66598785 8.58904428 6.07365612 12.27734375 9.75 C13.63965309 10.95203765 15.01286748 12.14197151 16.40234375 13.3125 C17.35109375 14.116875 18.29984375 14.92125 19.27734375 15.75 C20.24671875 15.23050781 21.21609375 14.71101562 22.21484375 14.17578125 C31.63214423 9.23590794 40.93543684 5.3367312 51.27734375 2.75 C52.37030762 2.4718042 52.37030762 2.4718042 53.48535156 2.18798828 C70.99590221 -1.81636245 91.19448558 -0.73019425 108.27734375 4.75 C108.96570313 4.96430664 109.6540625 5.17861328 110.36328125 5.39941406 C123.88331761 9.71552232 135.3745412 16.64368196 146.27734375 25.75 C146.99921875 26.34941406 147.72109375 26.94882812 148.46484375 27.56640625 C152.15552915 30.70755945 155.40979844 33.8071252 158.27734375 37.75 C162.90596219 35.93122523 165.8447798 32.22874873 169.12304688 28.65039062 C172.01689865 25.61931297 174.0103014 23.89152711 178.27734375 23.75 C183.91589797 26.02710843 183.91589797 26.02710843 185.27734375 28.75 C185.83456341 32.23262287 185.97572617 34.68326344 183.99609375 37.70703125 C181.4822248 40.60369388 178.81152898 43.2560616 175.99609375 45.859375 C175.26390625 46.54515625 174.53171875 47.2309375 173.77734375 47.9375 C173.08640625 48.54980469 172.39546875 49.16210938 171.68359375 49.79296875 C170.01435551 51.68315973 170.01435551 51.68315973 170.41796875 54.21484375 C171.26108586 56.70203923 172.25523335 58.83037048 173.52734375 61.125 C183.8745733 81.37087979 184.72180206 102.24656394 184.5703125 124.47265625 C184.56470455 126.91458371 184.56044014 129.35651459 184.55744934 131.79844666 C184.54609491 138.16876851 184.51671043 144.53887919 184.4833374 150.90911865 C184.45243189 157.43222193 184.43890058 163.95535995 184.42382812 170.47851562 C184.39183024 183.23578393 184.33914094 195.99284122 184.27734375 208.75 C191.20734375 208.42 198.13734375 208.09 205.27734375 207.75 C205.29716309 205.63698486 205.31698242 203.52396973 205.33740234 201.34692383 C205.40470095 194.31806645 205.48233131 187.28934947 205.56487083 180.2606554 C205.61454018 176.00461311 205.6608694 171.74859218 205.69921875 167.49243164 C205.73644676 163.37500388 205.78290094 159.2577689 205.83540726 155.14050865 C205.85375421 153.57990635 205.86893244 152.01926305 205.88068771 150.45859718 C206.07067553 126.07794575 206.07067553 126.07794575 211.27734375 115.84765625 C212.52974266 113.22055384 213.39466392 110.52019608 214.27734375 107.75 C213.858479 107.36255615 213.43961426 106.9751123 213.00805664 106.57592773 C211.10271968 104.79600803 209.22153422 102.99238678 207.33984375 101.1875 C206.35081055 100.27387695 206.35081055 100.27387695 205.34179688 99.34179688 C202.11411172 96.21342511 200.45325405 94.39500442 199.24609375 89.96875 C199.27734375 86.75 199.27734375 86.75 200.71484375 83.8125 C203.48888962 81.57973137 205.39799551 80.78783216 208.9921875 80.99609375 C214.68527035 82.8743245 218.9181079 88.18411576 222.8828125 92.49609375 C224.23802205 94.01579812 224.23802205 94.01579812 226.27734375 95.75 C231.04149813 95.12625067 235.65434981 92.67272296 240.0859375 90.90625 C251.59486323 86.73655353 264.12408215 88.14815753 275.1953125 93.0390625 C289.29979416 100.31502959 296.88995524 110.47508374 301.81884766 125.38842773 C302.49049016 128.84785156 302.39931328 132.28769848 302.375 135.796875 C302.37287758 136.95367767 302.37287758 136.95367767 302.37071228 138.1338501 C302.36512909 140.58927338 302.3525797 143.04460442 302.33984375 145.5 C302.33482658 147.16796743 302.33026405 148.83593629 302.32617188 150.50390625 C302.31516516 154.58597287 302.29791211 158.66797081 302.27734375 162.75 C303.37433594 162.72679687 304.47132813 162.70359375 305.6015625 162.6796875 C307.05598275 162.66092079 308.51041039 162.64272156 309.96484375 162.625 C310.68607422 162.60824219 311.40730469 162.59148437 312.15039062 162.57421875 C316.302424 162.53630064 319.61979405 162.70068644 323.27734375 164.75 C325.75773282 168.4705836 325.74071578 170.34796571 325.27734375 174.75 C323.86328125 176.95703125 323.86328125 176.95703125 321.27734375 178.75 C318.01344157 179.23909434 314.81814469 179.12638231 311.52734375 179 C310.63917969 178.98195312 309.75101562 178.96390625 308.8359375 178.9453125 C306.64863527 178.89827374 304.46354559 178.83257009 302.27734375 178.75 C302.2873365 179.60538864 302.2873365 179.60538864 302.29753113 180.47805786 C302.36455676 186.48157031 302.40941925 192.48497433 302.44213867 198.48876953 C302.45710762 200.72123542 302.47749004 202.9536725 302.50366211 205.18603516 C302.81346056 232.31466055 297.67730222 254.78582887 279.27734375 275.75 C278.62378906 276.49894531 277.97023438 277.24789063 277.296875 278.01953125 C262.05979183 294.34293554 239.50980331 304.06585699 217.25952148 305.06982422 C212.21907876 305.18277751 207.19310957 305.10085994 202.15234375 305 C196.25359375 304.9175 190.35484375 304.835 184.27734375 304.75 C184.27734375 325.21 184.27734375 345.67 184.27734375 366.75 C189.55734375 366.75 194.83734375 366.75 200.27734375 366.75 C205.27734375 369.75 205.27734375 369.75 207.27734375 372.75 C206.95052746 378.85057078 206.95052746 378.85057078 205.00463867 381.45043945 C202.7961368 383.11204447 201.57021404 383.0981786 198.828125 383.04296875 C197.98056641 383.03330078 197.13300781 383.02363281 196.25976562 383.01367188 C195.37869141 382.98853516 194.49761719 382.96339844 193.58984375 382.9375 C192.25083008 382.91719727 192.25083008 382.91719727 190.88476562 382.89648438 C188.68168209 382.86114079 186.47981793 382.81180493 184.27734375 382.75 C184.28010913 383.34745592 184.28287451 383.94491184 184.28572369 384.56047249 C184.35202115 399.10822748 184.40164263 413.65597353 184.43278027 428.20384407 C184.44823904 435.23914139 184.46930952 442.27433778 184.50366211 449.30957031 C184.53679473 456.09820386 184.55419444 462.88673243 184.56197548 469.67544174 C184.56752105 472.26621019 184.57835007 474.85697285 184.59453392 477.44769669 C184.61629193 481.07479535 184.61931127 484.70145992 184.61791992 488.32861328 C184.63409866 489.93731041 184.63409866 489.93731041 184.65060425 491.57850647 C184.6211244 498.6747262 183.67079445 503.04969665 178.83984375 508.5 C174.18500878 512.58717217 170.65523616 513.04431739 164.56109619 513.02415466 C163.77928097 513.02939134 162.99746574 513.03462802 162.19195914 513.04002339 C159.56965291 513.05503676 156.94754159 513.05572883 154.32519531 513.05639648 C152.44598053 513.06401715 150.56676887 513.07244449 148.68756104 513.08161926 C143.57997962 513.10358219 138.47245809 513.11236576 133.36483479 513.11744571 C130.1733485 513.12108761 126.98187794 513.12732685 123.79039764 513.1344471 C112.65485443 513.15894927 101.51935785 513.17199484 90.38378906 513.17553711 C80.00683183 513.17917144 69.63017055 513.20905757 59.25330377 513.25094169 C50.34275812 513.28564535 41.43231053 513.30108558 32.52169776 513.30178314 C27.20052157 513.30257603 21.87964667 513.31131978 16.55854034 513.33978081 C11.55155856 513.36596209 6.54512783 513.36816618 1.53810883 513.35212517 C-0.29686179 513.35031065 -2.13186409 513.35700169 -3.96676636 513.37294388 C-20.68943013 513.50934562 -20.68943013 513.50934562 -26.38022614 509.17897129 C-31.94368609 503.25685701 -32.28403396 496.92465057 -32.11328125 489.125 C-32.10762146 488.13749756 -32.10196167 487.14999512 -32.09613037 486.13256836 C-32.07388994 483.00453482 -32.02371652 479.87768239 -31.97265625 476.75 C-31.95257532 474.61850622 -31.93432735 472.48699434 -31.91796875 470.35546875 C-31.87406598 465.15324858 -31.807279 459.9517087 -31.72265625 454.75 C-32.84534912 454.77094727 -33.96804199 454.79189453 -35.12475586 454.81347656 C-39.37592298 454.88705407 -43.62703675 454.93221774 -47.87866211 454.96972656 C-49.70265226 454.98957865 -51.52658112 455.01666958 -53.3503418 455.05175781 C-80.20320157 455.55464805 -104.27679588 448.01139507 -124.18847656 429.29736328 C-128.57401813 424.87413564 -132.1691809 419.84643175 -135.72265625 414.75 C-136.2228125 414.06550781 -136.72296875 413.38101562 -137.23828125 412.67578125 C-150.60392557 393.17716723 -150.88425092 369.10606757 -150.8203125 346.42578125 C-150.81844428 344.46852149 -150.81702228 342.51126125 -150.81602478 340.55400085 C-150.81223144 335.43639809 -150.80242881 330.31882432 -150.7913208 325.20123291 C-150.78103777 319.96553947 -150.77651248 314.72984128 -150.77148438 309.49414062 C-150.76080329 299.24608111 -150.74376571 288.99804298 -150.72265625 278.75 C-151.975625 278.79640625 -153.22859375 278.8428125 -154.51953125 278.890625 C-156.17054906 278.92814813 -157.82159267 278.96454771 -159.47265625 279 C-160.29765625 279.03351563 -161.12265625 279.06703125 -161.97265625 279.1015625 C-168.11484457 279.20063005 -168.11484457 279.20063005 -171.26977539 276.86157227 C-173.72246083 273.29691483 -173.19549368 271.00553684 -172.72265625 266.75 C-170.91102358 264.07568511 -169.84504548 263.79079641 -166.72265625 262.75 C-163.98400338 262.67948886 -161.27238037 262.65642235 -158.53515625 262.6875 C-157.78556641 262.69201172 -157.03597656 262.69652344 -156.26367188 262.70117188 C-154.41663242 262.71293646 -152.56963412 262.73087135 -150.72265625 262.75 C-150.72709747 261.97485046 -150.7315387 261.19970093 -150.7361145 260.40106201 C-150.7764179 253.04673542 -150.80675475 245.69246341 -150.82628059 238.33805466 C-150.83665691 234.55832912 -150.85070161 230.77869588 -150.87353516 226.99902344 C-150.89548565 223.34206503 -150.90727095 219.68519463 -150.91241074 216.02817535 C-150.9160671 214.64253609 -150.92320521 213.25690088 -150.93411636 211.87129974 C-151.06162642 194.98616512 -148.73334621 181.56475215 -138.72265625 167.75 C-142.01106328 163.80391157 -145.27633332 160.24625103 -149.09765625 156.8125 C-151.83766992 154.10922981 -153.28434827 152.40376924 -153.47265625 148.5 C-152.72265625 144.75 -152.72265625 144.75 -151.16015625 142.25 C-147.50532288 140.00087178 -145.97943475 139.85744967 -141.72265625 140.75 C-137.36956663 143.94410538 -133.55748917 147.6995437 -129.9609375 151.71875 C-128.34875062 153.58288899 -128.34875062 153.58288899 -125.72265625 155.75 C-121.60582117 155.38252797 -117.75904097 154.21948048 -113.78515625 153.125 C-100.59257596 150.07130125 -87.87956112 152.29220265 -76.34765625 159.25 C-75.1297892 160.06933738 -73.92022244 160.90126617 -72.72265625 161.75 C-71.85640625 162.348125 -70.99015625 162.94625 -70.09765625 163.5625 C-61.68054899 171.3150988 -55.32348433 182.74918421 -54.46094322 194.23505306 C-54.45541246 195.46749028 -54.44988171 196.6999275 -54.44418335 197.9697113 C-54.43839095 198.66172907 -54.43259855 199.35374684 -54.42663062 200.06673485 C-54.4097355 202.3667225 -54.40676326 204.66650823 -54.40380859 206.96655273 C-54.39450316 208.62274156 -54.38433357 210.27892571 -54.37336731 211.93510437 C-54.34612265 216.41800808 -54.33093433 220.90088047 -54.31793928 225.38384509 C-54.3022845 230.07372798 -54.27550177 234.76354712 -54.24990845 239.4533844 C-54.2031622 248.32836866 -54.16639799 257.20336497 -54.13323557 266.07840925 C-54.09498483 276.18482745 -54.04558239 286.29118156 -53.99525142 296.3975457 C-53.89199335 317.18165049 -53.80310859 337.96579549 -53.72265625 358.75 C-46.46265625 358.75 -39.20265625 358.75 -31.72265625 358.75 C-31.72265625 286.48 -31.72265625 214.21 -31.72265625 139.75 C-37.99265625 139.75 -44.26265625 139.75 -50.72265625 139.75 C-55.72265625 134.75 -55.72265625 134.75 -56.34765625 131.75 C-55.48094197 127.58977145 -54.10478169 126.31560214 -50.72265625 123.75 C-47.42741982 123.14719494 -44.24585144 123.27581455 -40.91015625 123.4375 C-40.02650391 123.46005859 -39.14285156 123.48261719 -38.23242188 123.50585938 C-36.06176715 123.56452572 -33.89198935 123.65420021 -31.72265625 123.75 C-31.74622192 122.70211304 -31.74622192 122.70211304 -31.77026367 121.63305664 C-32.36295277 91.18084096 -27.84880197 62.20564468 -6.72265625 38.75 C-5.92085937 37.8528125 -5.1190625 36.955625 -4.29296875 36.03125 C-2.74027456 34.30493186 -1.17874571 32.58648734 0.39453125 30.87890625 C2.4127004 28.69398264 2.4127004 28.69398264 4.27734375 25.75 C3.35050781 24.89277344 2.42367187 24.03554688 1.46875 23.15234375 C0.25832789 21.99822034 -0.95126427 20.84322605 -2.16015625 19.6875 C-3.07764648 18.84541992 -3.07764648 18.84541992 -4.01367188 17.98632812 C-7.12629711 14.97688383 -8.58039774 13.28346941 -9.72265625 9 C-9.72265625 5.75 -9.72265625 5.75 -8.28515625 2.8125 C-5.50786803 0.57712168 -3.59795875 -0.2144035 0 0 Z " fill="#010100" transform="translate(179.72265625,-0.75)"/>
<path d="M0 0 C0.92425781 0.57427734 0.92425781 0.57427734 1.8671875 1.16015625 C7.24168539 5.04483218 10.93473344 11.80420033 13 18 C13.09953111 20.81260803 13.14171054 23.6006115 13.13803101 26.41342163 C13.14085229 27.28225373 13.14367357 28.15108583 13.14658034 29.04624617 C13.1549391 31.96882801 13.15626567 34.89137202 13.15771484 37.81396484 C13.16238207 39.90479133 13.16752548 41.9956168 13.17311096 44.08644104 C13.18439962 48.5946582 13.19283004 53.10286872 13.19923019 57.61109543 C13.20989718 64.73698144 13.23013795 71.86281976 13.25234985 78.98867798 C13.31431982 99.25382304 13.36831388 119.51896533 13.40136719 139.78417969 C13.41969527 150.97201563 13.44860732 162.15977177 13.4893719 173.34754908 C13.51047029 179.27049107 13.5259032 185.19333238 13.52817917 191.11631393 C13.53032199 196.68624523 13.54615398 202.25596681 13.57256889 207.82583427 C13.57977699 209.87167264 13.58185558 211.91753637 13.57846642 213.96338463 C13.57458232 216.75337649 13.58899193 219.54269503 13.60800171 222.33261108 C13.60247201 223.1447725 13.59694232 223.95693393 13.59124506 224.7937063 C13.64492288 229.34831702 14.11388041 232.40189743 17 236 C19.86871255 236.8123285 21.9660907 236.33710103 25 236 C27.59930395 233.40069605 27.25801747 232.33090701 27.2784729 228.71029663 C27.28963638 227.58846481 27.30079987 226.466633 27.31230164 225.31080627 C27.31446182 224.0743486 27.31662201 222.83789093 27.31884766 221.56396484 C27.32889328 220.26644791 27.3389389 218.96893097 27.34928894 217.63209534 C27.37665534 214.06829048 27.39175788 210.50452529 27.40471697 206.94064283 C27.42031859 203.21832685 27.4471182 199.49609224 27.4727478 195.77383423 C27.51958834 188.72261227 27.55630683 181.6713751 27.58942068 174.62007678 C27.62760489 166.59353077 27.67702467 158.56706637 27.72740483 150.54058909 C27.83080311 134.02711795 27.92003772 117.5136016 28 101 C29.75376953 100.94392578 29.75376953 100.94392578 31.54296875 100.88671875 C33.09117675 100.8210372 34.63935242 100.75459061 36.1875 100.6875 C36.95642578 100.66494141 37.72535156 100.64238281 38.51757812 100.61914062 C43.08659807 100.40343582 46.3075456 99.98119361 50 97 C50.60169446 94.72668201 50.60169446 94.72668201 50.3125 92.3125 C50.24482422 91.10013672 50.24482422 91.10013672 50.17578125 89.86328125 C50.11777344 89.24839844 50.05976563 88.63351563 50 88 C47.27498092 87.09166031 45.37766029 86.81640015 42.55078125 86.68359375 C41.70322266 86.64169922 40.85566406 86.59980469 39.98242188 86.55664062 C39.10134766 86.51732422 38.22027344 86.47800781 37.3125 86.4375 C36.41982422 86.39431641 35.52714844 86.35113281 34.60742188 86.30664062 C32.40509892 86.20064647 30.20266527 86.09857949 28 86 C27.99453156 84.71786118 27.99453156 84.71786118 27.98895264 83.40982056 C27.95094374 75.31882787 27.89394577 67.228233 27.81609726 59.13752174 C27.77673977 54.97887313 27.7444943 50.82043253 27.72900391 46.66162109 C27.71375933 42.64130886 27.67917783 38.62156897 27.63169098 34.60151291 C27.61695699 33.0747312 27.60896361 31.54786773 27.60811615 30.02101517 C27.5992546 22.05433373 27.37524126 15.07979804 23.75592041 7.81015015 C23.50646667 7.2128006 23.25701294 6.61545105 23 6 C23.33 5.34 23.66 4.68 24 4 C34.30645865 10.33799046 43.32438891 16.58618998 51 26 C51.63679688 26.71542969 52.27359375 27.43085937 52.9296875 28.16796875 C62.85477758 39.69574848 68.03653314 53.50697957 72 68 C72.27176475 68.88310867 72.27176475 68.88310867 72.54901969 69.78405792 C73.16476454 72.80958898 73.12543094 75.69531452 73.12584114 78.78319836 C73.12729458 79.46792873 73.12874802 80.15265911 73.13024551 80.85813889 C73.13390855 83.16335721 73.13041767 85.46850953 73.12698364 87.77372742 C73.12813533 89.43876184 73.12972318 91.10379601 73.13171089 92.76882964 C73.13589748 97.35270274 73.13381653 101.93655511 73.13072467 106.5204283 C73.12846814 111.46043835 73.13195142 116.40044476 73.13470459 121.3404541 C73.13915825 131.02044229 73.13818769 140.70042274 73.13529195 150.38041123 C73.13303673 158.2435812 73.13272591 166.106749 73.13381577 173.9699192 C73.133969 175.0875591 73.13412223 176.205199 73.13428011 177.35670677 C73.13459982 179.62688591 73.13492403 181.89706504 73.1352527 184.16724417 C73.13810621 205.46867362 73.13482228 226.77009877 73.12945233 248.07152752 C73.12498258 266.36905761 73.12576189 284.66658135 73.13037109 302.96411133 C73.13571597 324.19217925 73.13783347 345.42024341 73.13475883 366.64831191 C73.13444027 368.90938397 73.1341259 371.17045603 73.13381577 373.43152809 C73.13358435 375.10045175 73.13358435 375.10045175 73.13334826 376.80309105 C73.13248298 384.66291964 73.13394618 392.52274585 73.13629532 400.38257408 C73.13909247 409.95204486 73.13835678 419.52150744 73.13301457 429.09097727 C73.13037669 433.97810162 73.12937398 438.86521225 73.13266373 443.7523365 C73.13562481 448.21854293 73.13403706 452.68472282 73.12868617 457.15092681 C73.1275612 458.77396343 73.12815492 460.39700226 73.13056196 462.02003749 C73.13356486 464.21149941 73.13052264 466.40286818 73.12584114 468.59432507 C73.12567879 469.8159954 73.12551644 471.03766573 73.12534916 472.29635638 C73 475 73 475 72 476 C70.61839885 476.0927833 69.23211962 476.11747043 67.84741211 476.11352539 C66.95421265 476.11340454 66.06101318 476.11328369 65.14074707 476.11315918 C64.19582397 476.10804321 63.25090088 476.10292725 62.27734375 476.09765625 C61.41338989 476.09664917 60.54943604 476.09564209 59.65930176 476.09460449 C56.41868775 476.0893555 53.1780926 476.07539436 49.9375 476.0625 C42.698125 476.041875 35.45875 476.02125 28 476 C28 455.87 28 435.74 28 415 C33.61 414.67 39.22 414.34 45 414 C47.475 412.515 47.475 412.515 50 411 C50.60169446 408.72668201 50.60169446 408.72668201 50.3125 406.3125 C50.24482422 405.10013672 50.24482422 405.10013672 50.17578125 403.86328125 C50.11777344 403.24839844 50.05976563 402.63351562 50 402 C47.27498092 401.09166031 45.37766029 400.81640015 42.55078125 400.68359375 C41.70322266 400.64169922 40.85566406 400.59980469 39.98242188 400.55664062 C38.66081055 400.49766602 38.66081055 400.49766602 37.3125 400.4375 C36.41982422 400.39431641 35.52714844 400.35113281 34.60742188 400.30664062 C32.40509892 400.20064647 30.20266527 400.09857949 28 400 C27.99668985 399.24939867 27.99337971 398.49879734 27.98996925 397.72545052 C27.90883454 379.48207141 27.81677367 361.23877761 27.71247292 342.99551582 C27.66229929 334.17329781 27.61585703 325.35108931 27.578125 316.52880859 C27.54523768 308.84148417 27.50542473 301.15423258 27.45720994 293.46698844 C27.43191237 289.39468363 27.41014085 285.32242734 27.39665604 281.25006485 C27.38386506 277.42023282 27.36184317 273.59056691 27.33261681 269.76082611 C27.32351772 268.35230932 27.31784539 266.94376577 27.31578636 265.5352211 C27.31248038 263.61785446 27.29585705 261.70052433 27.2784729 259.78323364 C27.27294214 258.70842302 27.26741138 257.6336124 27.26171303 256.52623177 C27.25073598 253.83041764 27.25073598 253.83041764 25 252 C23.08993694 251.6823754 23.08993694 251.6823754 21 251.75 C20.29875 251.74484375 19.5975 251.7396875 18.875 251.734375 C16.7564331 251.84294485 16.7564331 251.84294485 15 254 C14.67485208 256.6220742 14.67485208 256.6220742 14.69702148 259.71899414 C14.68037949 260.9168605 14.66373749 262.11472687 14.64659119 263.34889221 C14.63817703 264.64785934 14.62976288 265.94682648 14.62109375 267.28515625 C14.60492497 268.62512939 14.58774564 269.96509069 14.56959534 271.30503845 C14.52386748 274.83422384 14.48908108 278.36342484 14.45739746 281.89276123 C14.4055548 287.54599713 14.34052511 293.19905939 14.26918221 298.85207939 C14.24628234 300.83135594 14.23034338 302.81070901 14.21446228 304.79005432 C14.20097244 305.98476852 14.1874826 307.17948273 14.17358398 308.41040039 C14.15931618 309.99686119 14.15931618 309.99686119 14.14476013 311.6153717 C14 314 14 314 13 315 C9.20371287 315.20377684 5.41391927 315.34693644 1.61328125 315.4296875 C0.41638672 315.47609375 0.41638672 315.47609375 -0.8046875 315.5234375 C-1.53671387 315.54325684 -2.26874023 315.56307617 -3.02294922 315.58349609 C-5.54471335 316.11475438 -6.45241359 316.96590946 -8 319 C-8.53992566 323.10544303 -8.53992566 323.10544303 -6.73876953 326.65771484 C-4.61504964 328.29717173 -3.46437649 328.40455243 -0.8046875 328.4765625 C-0.00675781 328.5075 0.79117188 328.5384375 1.61328125 328.5703125 C2.44214844 328.58835937 3.27101563 328.60640625 4.125 328.625 C12.89527027 328.89527027 12.89527027 328.89527027 14 330 C14.09654727 331.88561518 14.12187241 333.77489455 14.12025452 335.66297913 C14.12231651 337.50774086 14.12231651 337.50774086 14.12442017 339.38977051 C14.12088056 340.76513696 14.11724574 342.14050317 14.11352539 343.51586914 C14.11324352 344.95442198 14.11340124 346.39297496 14.1139679 347.83152771 C14.11425589 351.74871143 14.10835884 355.66586479 14.10139394 359.58304143 C14.09516074 363.67233837 14.09455663 367.76163593 14.09336853 371.85093689 C14.09025511 379.59992398 14.08204159 387.34889703 14.07201904 395.09787792 C14.05877307 405.56532393 14.05335808 416.03277375 14.04751682 426.50022602 C14.0381017 443.0001612 14.01818286 459.50006676 14 476 C-7.78 476 -29.56 476 -52 476 C-52 444.65 -52 413.3 -52 381 C-42.595 380.505 -42.595 380.505 -33 380 C-29.73140098 377.3453416 -29.73140098 377.3453416 -29.625 374 C-29.73140098 370.6546584 -29.73140098 370.6546584 -33 368 C-39.27 367.67 -45.54 367.34 -52 367 C-52 302.65 -52 238.3 -52 172 C-45.73 171.67 -39.46 171.34 -33 171 C-32.01 170.67 -31.02 170.34 -30 170 C-29.86463226 168.56510191 -29.76782857 167.12652893 -29.6875 165.6875 C-29.62949219 164.88699219 -29.57148438 164.08648437 -29.51171875 163.26171875 C-29.78944138 160.82772862 -29.78944138 160.82772862 -31.97973633 159.40161133 C-35.96708968 157.55120347 -39.46611892 157.44001328 -43.8125 157.3125 C-44.60076172 157.27833984 -45.38902344 157.24417969 -46.20117188 157.20898438 C-48.13363119 157.12700125 -50.06679035 157.06181155 -52 157 C-52.07020651 139.70129856 -52.12304505 122.40264184 -52.15543652 105.10383034 C-52.17087889 97.07096202 -52.19191786 89.03818244 -52.22631836 81.00537109 C-52.25630153 74.00068041 -52.2755941 66.99605402 -52.28226548 59.99130094 C-52.28616271 56.28530436 -52.29526625 52.57949165 -52.31719017 48.87355423 C-52.34151607 44.72763299 -52.3419643 40.58202762 -52.34057617 36.43603516 C-52.351362 35.21898895 -52.36214783 34.00194275 -52.3732605 32.74801636 C-52.33354477 21.75737867 -50.25185073 12.49727727 -43 4 C-30.21147659 -8.19646214 -15.05447519 -9.59895437 0 0 Z " fill="#6EA929" transform="translate(275,21)"/>
<path d="M0 0 C1 2 1 2 0.24184799 4.2868681 C-0.13607769 5.27716424 -0.51400337 6.26746038 -0.90338135 7.2877655 C-3.94596902 16.86999391 -3.57297388 26.42666841 -3.54589844 36.39575195 C-3.55464624 38.53558092 -3.56513621 40.67540336 -3.57722473 42.81521606 C-3.60495722 48.58910809 -3.60849223 54.36278531 -3.60750484 60.13673425 C-3.61064493 66.18391177 -3.63628591 72.23099411 -3.65948486 78.27812195 C-3.69996458 89.71350363 -3.72036671 101.1488284 -3.73345876 112.58427066 C-3.74935601 125.60976823 -3.78778314 138.63516932 -3.82805204 151.6606108 C-3.91034113 178.44037477 -3.96450188 205.22013599 -4 232 C-4.56509277 232.01981934 -5.13018555 232.03963867 -5.71240234 232.06005859 C-8.26707997 232.15518236 -10.82092541 232.26491058 -13.375 232.375 C-14.26445312 232.4059375 -15.15390625 232.436875 -16.0703125 232.46875 C-16.92109375 232.50742187 -17.771875 232.54609375 -18.6484375 232.5859375 C-19.43395996 232.6173584 -20.21948242 232.6487793 -21.02880859 232.68115234 C-23.23002939 232.8399465 -23.23002939 232.8399465 -25 235 C-25.3176246 236.91006306 -25.3176246 236.91006306 -25.25 239 C-25.25515625 239.70125 -25.2603125 240.4025 -25.265625 241.125 C-25.15705515 243.2435669 -25.15705515 243.2435669 -23 245 C-16.73 245.33 -10.46 245.66 -4 246 C-4 320.25 -4 394.5 -4 471 C-18.19 471 -32.38 471 -47 471 C-49.78663075 468.21336925 -49.25061508 466.54609014 -49.25168228 462.63976669 C-49.25458916 461.97643412 -49.25749604 461.31310155 -49.26049101 460.629668 C-49.26784696 458.3850003 -49.26082181 456.14060121 -49.25396729 453.89593506 C-49.25626956 452.27901387 -49.25944451 450.66209373 -49.26342177 449.04517579 C-49.27181153 444.58447482 -49.26762553 440.12385884 -49.26144934 435.66315746 C-49.25694241 430.85851132 -49.26390012 426.05388025 -49.26940918 421.24923706 C-49.27832615 411.82662904 -49.27637025 402.40405279 -49.2705839 392.98144349 C-49.26607323 385.31951771 -49.26545193 377.65760086 -49.26763153 369.99567413 C-49.267938 368.90649491 -49.26824446 367.81731568 -49.26856022 366.69513102 C-49.26919966 364.48255632 -49.26984809 362.26998163 -49.2705054 360.05740693 C-49.27621626 339.28064644 -49.26964064 318.50390355 -49.25890467 297.72714594 C-49.24998353 279.91183844 -49.25150785 262.09655702 -49.26074219 244.28125 C-49.27145748 223.59912316 -49.27565099 202.91701182 -49.26951766 182.23488259 C-49.26888057 180.02662675 -49.26825183 177.8183709 -49.26763153 175.61011505 C-49.26732298 174.52361555 -49.26701443 173.43711605 -49.26669653 172.31769232 C-49.26497224 164.67388572 -49.26787928 157.03008896 -49.27259064 149.38628387 C-49.27821411 140.05720848 -49.27665288 130.72816672 -49.26602915 121.39909515 C-49.26078982 116.64200211 -49.25868571 111.88496503 -49.26532745 107.12787247 C-49.27132613 102.76511705 -49.26794767 98.40246899 -49.25737235 94.03972319 C-49.25515464 92.46888586 -49.25623756 90.8980393 -49.26112393 89.32720801 C-49.34337723 60.66553591 -41.19907505 35.67652716 -20.9765625 14.78125 C-14.65719225 8.59417929 -7.82458642 4.06490039 0 0 Z " fill="#94BF32" transform="translate(212,26)"/>
<path d="M0 0 C10.95581677 6.09892338 20.05437744 12.25503242 28 22 C28.63679688 22.71542969 29.27359375 23.43085937 29.9296875 24.16796875 C39.85477758 35.69574848 45.03653314 49.50697957 49 64 C49.27176475 64.88310867 49.27176475 64.88310867 49.54901969 65.78405792 C50.16476454 68.80958898 50.12543094 71.69531452 50.12584114 74.78319836 C50.12729458 75.46792873 50.12874802 76.15265911 50.13024551 76.85813889 C50.13390855 79.16335721 50.13041767 81.46850953 50.12698364 83.77372742 C50.12813533 85.43876184 50.12972318 87.10379601 50.13171089 88.76882964 C50.13589748 93.35270274 50.13381653 97.93655511 50.13072467 102.5204283 C50.12846814 107.46043835 50.13195142 112.40044476 50.13470459 117.3404541 C50.13915825 127.02044229 50.13818769 136.70042274 50.13529195 146.38041123 C50.13303673 154.2435812 50.13272591 162.106749 50.13381577 169.9699192 C50.133969 171.0875591 50.13412223 172.205199 50.13428011 173.35670677 C50.13459982 175.62688591 50.13492403 177.89706504 50.1352527 180.16724417 C50.13810621 201.46867362 50.13482228 222.77009877 50.12945233 244.07152752 C50.12498258 262.36905761 50.12576189 280.66658135 50.13037109 298.96411133 C50.13571597 320.19217925 50.13783347 341.42024341 50.13475883 362.64831191 C50.13444027 364.90938397 50.1341259 367.17045603 50.13381577 369.43152809 C50.13358435 371.10045175 50.13358435 371.10045175 50.13334826 372.80309105 C50.13248298 380.66291964 50.13394618 388.52274585 50.13629532 396.38257408 C50.13909247 405.95204486 50.13835678 415.52150744 50.13301457 425.09097727 C50.13037669 429.97810162 50.12937398 434.86521225 50.13266373 439.7523365 C50.13562481 444.21854293 50.13403706 448.68472282 50.12868617 453.15092681 C50.1275612 454.77396343 50.12815492 456.39700226 50.13056196 458.02003749 C50.13356486 460.21149941 50.13052264 462.40286818 50.12584114 464.59432507 C50.12567879 465.8159954 50.12551644 467.03766573 50.12534916 468.29635638 C50 471 50 471 49 472 C47.61839885 472.0927833 46.23211962 472.11747043 44.84741211 472.11352539 C43.95421265 472.11340454 43.06101318 472.11328369 42.14074707 472.11315918 C41.19582397 472.10804321 40.25090088 472.10292725 39.27734375 472.09765625 C38.41338989 472.09664917 37.54943604 472.09564209 36.65930176 472.09460449 C33.41868775 472.0893555 30.1780926 472.07539436 26.9375 472.0625 C19.698125 472.041875 12.45875 472.02125 5 472 C5 451.87 5 431.74 5 411 C10.61 410.67 16.22 410.34 22 410 C23.65 409.01 25.3 408.02 27 407 C27.60169446 404.72668201 27.60169446 404.72668201 27.3125 402.3125 C27.26738281 401.50425781 27.22226562 400.69601562 27.17578125 399.86328125 C27.11777344 399.24839844 27.05976563 398.63351562 27 398 C24.27498092 397.09166031 22.37766029 396.81640015 19.55078125 396.68359375 C18.70322266 396.64169922 17.85566406 396.59980469 16.98242188 396.55664062 C15.66081055 396.49766602 15.66081055 396.49766602 14.3125 396.4375 C13.41982422 396.39431641 12.52714844 396.35113281 11.60742188 396.30664062 C9.40509892 396.20064647 7.20266527 396.09857949 5 396 C5.00037703 395.25124226 5.00075405 394.50248451 5.0011425 393.73103714 C5.00825658 375.52026358 4.98239069 357.30981104 4.9197216 339.09914017 C4.89021236 330.29259286 4.87190622 321.48628721 4.87988281 312.6796875 C4.88680613 305.00469151 4.87280211 297.33006941 4.83356392 289.65516543 C4.81351646 285.59043371 4.80401975 281.52628932 4.81957626 277.46152496 C4.83388566 273.63627438 4.82023536 269.81214716 4.78504753 265.98704147 C4.77707255 264.58259205 4.77935247 263.17804156 4.79260826 261.77363205 C5.23096906 254.6387265 5.23096906 254.6387265 2.64087296 248.36244965 C0.83865483 247.14943528 0.83865483 247.14943528 -2 246 C-2.796875 243.125 -2.796875 243.125 -2.75 240 C-2.76546875 238.96875 -2.7809375 237.9375 -2.796875 236.875 C-2.53390625 235.92625 -2.2709375 234.9775 -2 234 C-1.00950653 233.54187927 -0.01901306 233.08375854 1.00149536 232.61175537 C4.17261534 230.36740857 4.17261534 230.36740857 4.56631088 227.51746368 C4.78215785 224.11218694 4.80687143 220.7490527 4.77294922 217.33691406 C4.78357895 216.03910507 4.79420868 214.74129608 4.80516052 213.40415955 C4.83360811 209.84843174 4.82524185 206.29362958 4.81029272 202.73785496 C4.80091714 199.0208372 4.82535909 195.30404604 4.84622192 191.58709717 C4.88057802 184.54999175 4.88449734 177.51321123 4.87749684 170.47603869 C4.87100727 162.4639077 4.89842525 154.45200518 4.92869925 146.43994188 C4.99020984 129.95992089 5.00911382 113.48013644 5 97 C6.75376953 96.94392578 6.75376953 96.94392578 8.54296875 96.88671875 C10.09117675 96.8210372 11.63935242 96.75459061 13.1875 96.6875 C13.95642578 96.66494141 14.72535156 96.64238281 15.51757812 96.61914062 C20.08659807 96.40343582 23.3075456 95.98119361 27 93 C27.60169446 90.72668201 27.60169446 90.72668201 27.3125 88.3125 C27.26738281 87.50425781 27.22226562 86.69601563 27.17578125 85.86328125 C27.11777344 85.24839844 27.05976563 84.63351563 27 84 C24.27498092 83.09166031 22.37766029 82.81640015 19.55078125 82.68359375 C18.70322266 82.64169922 17.85566406 82.59980469 16.98242188 82.55664062 C16.10134766 82.51732422 15.22027344 82.47800781 14.3125 82.4375 C13.41982422 82.39431641 12.52714844 82.35113281 11.60742188 82.30664062 C9.40509892 82.20064647 7.20266527 82.09857949 5 82 C4.99453156 80.71786118 4.99453156 80.71786118 4.98895264 79.40982056 C4.95094374 71.31882787 4.89394577 63.228233 4.81609726 55.13752174 C4.77673977 50.97887313 4.7444943 46.82043253 4.72900391 42.66162109 C4.71375933 38.64130886 4.67917783 34.62156897 4.63169098 30.60151291 C4.61695699 29.0747312 4.60896361 27.54786773 4.60811615 26.02101517 C4.5992889 18.08517019 4.36504013 11.08687938 0.85357666 3.81015015 C0 2 0 2 0 0 Z " fill="#94BE32" transform="translate(298,25)"/>
<path d="M0 0 C0.00238835 0.7445258 0.00477671 1.48905161 0.00723743 2.2561388 C0.0663301 20.35802707 0.14184318 38.45977831 0.23571491 56.56152058 C0.28071281 65.31533417 0.32011817 74.06910672 0.34643555 82.82299805 C0.36938338 90.45139473 0.40274516 98.07966195 0.44870156 105.70795602 C0.47267737 109.74845735 0.49137748 113.78883012 0.49761391 117.82940102 C0.5036452 121.63057349 0.52357339 125.43141683 0.55427551 129.23246765 C0.5630873 130.6292715 0.56677185 132.02611831 0.56500816 133.42294884 C0.5633629 135.32682879 0.58177385 137.23069489 0.60127258 139.13447571 C0.60588155 140.20099019 0.61049051 141.26750467 0.61523914 142.36633778 C0.79346084 145.01699944 0.79346084 145.01699944 2.34132671 146.83925152 C4.97250329 148.68056303 6.88352103 148.44521128 10 148 C12.7489305 145.89198358 13.87012363 144.70105766 14.50780869 141.25890732 C14.51333944 139.6715798 14.51333944 139.6715798 14.51898193 138.05218506 C14.53985115 136.2264798 14.53985115 136.2264798 14.56114197 134.3638916 C14.55642907 133.01830921 14.55133513 131.6727281 14.54589844 130.32714844 C14.55463404 128.90784573 14.56511978 127.48855287 14.57722473 126.0692749 C14.60510751 122.21831669 14.60848893 118.36767945 14.60750484 114.51663494 C14.61063202 110.49134299 14.6362461 106.46619603 14.65948486 102.440979 C14.70006349 94.81959799 14.72038991 87.19830257 14.73345876 79.57683015 C14.74932253 70.89967934 14.78773548 62.22267433 14.82805204 53.54560804 C14.91047644 35.69711811 14.96455264 17.84864193 15 0 C16.43586043 0.46447652 17.87052803 0.93264149 19.3046875 1.40234375 C20.10374512 1.66265381 20.90280273 1.92296387 21.72607422 2.19116211 C30.28990351 5.23732557 34.68455645 12.34819796 38.57777405 20.1697998 C41.01104794 26.85315512 40.4055956 34.09716235 40.36889648 41.11132812 C40.37136711 42.74482983 40.37520818 44.37832995 40.38031006 46.01182556 C40.3886225 49.51761676 40.38786232 53.02324538 40.38012505 56.52903748 C40.36850582 62.0767666 40.38073452 67.62428817 40.39674377 73.17199707 C40.43287417 86.94869755 40.43916818 100.72539265 40.43664551 114.50213623 C40.43493319 125.21621391 40.44208107 135.93012118 40.47662407 146.64415121 C40.49339037 152.15488732 40.49164771 157.66520718 40.47580135 163.17594147 C40.46999327 166.60818634 40.48076411 170.04023494 40.49604797 173.47244453 C40.4997653 175.05907155 40.49669191 176.64573188 40.48617744 178.23232841 C40.36673365 191.01980131 40.36673365 191.01980131 46.66601562 201.84643555 C52.95291204 205.83042981 59.21510472 205.77647579 66.5 205.8125 C67.70398438 205.83763672 68.90796875 205.86277344 70.1484375 205.88867188 C73.09861104 205.94720706 76.04933901 205.97654821 79 206 C79 214.25 79 222.5 79 231 C74.9104589 231.04629669 70.82159867 231.08600292 66.73193359 231.10986328 C65.34518324 231.11982603 63.95845335 231.13340118 62.57177734 231.15087891 C47.68927987 231.33355216 35.93689042 229.95503276 24.5625 219.66015625 C17.66595545 212.33257767 14.55294259 203.39323119 14.59375 193.484375 C14.58291382 192.70612366 14.57207764 191.92787231 14.56091309 191.1260376 C14.51541832 187.8318026 14.50352865 184.53765703 14.48876953 181.24316406 C14.47308072 178.82328354 14.44010757 176.40405845 14.40625 173.984375 C14.40927124 173.24266052 14.41229248 172.50094604 14.41540527 171.73675537 C14.3697367 168.59936089 14.1715731 166.3245527 12.69335938 163.52832031 C10.94082922 161.65327738 10.94082922 161.65327738 7.5 161.5625 C4.17419912 161.73485772 4.17419912 161.73485772 2.30834961 163.03173828 C0.26011122 166.11307768 0.5524528 169.35027973 0.56640625 172.9296875 C0.55854347 174.10895309 0.55854347 174.10895309 0.55052185 175.31204224 C0.54409477 176.98145368 0.54544755 178.65091036 0.55395508 180.3203125 C0.56235481 182.83159382 0.53389843 185.34051259 0.50195312 187.8515625 C0.42982176 204.39944309 4.1824169 218.45469903 15.703125 230.86328125 C25.9669463 240.41142794 38.32711161 245.00425286 52.14453125 245.31640625 C53.2992115 245.3475779 53.2992115 245.3475779 54.47721863 245.37937927 C56.92222667 245.44446049 59.36733683 245.50356591 61.8125 245.5625 C63.47592177 245.60572468 65.13933344 245.64934021 66.80273438 245.69335938 C70.86838671 245.80083048 74.93412289 245.90021085 79 246 C79 254.25 79 262.5 79 271 C73.88023198 271.09289902 68.76350099 271.17219643 63.64355469 271.21972656 C61.9097288 271.23958198 60.17596745 271.26667573 58.44238281 271.30175781 C43.67738851 271.59260938 29.80512961 270.34966033 16.5625 263.1875 C15.89911621 262.84058105 15.23573242 262.49366211 14.55224609 262.13623047 C9.23129899 259.2809292 4.47203292 256.07620326 0 252 C-0.81855469 251.27296875 -1.63710937 250.5459375 -2.48046875 249.796875 C-15.64773841 237.44633462 -24.23753155 220.36066246 -25.20053291 202.22307587 C-25.32021911 197.60922274 -25.32808905 192.99502758 -25.33813477 188.37988281 C-25.34904635 186.60803768 -25.36071979 184.8361971 -25.37309265 183.06436157 C-25.40344316 178.27491982 -25.42057761 173.48552584 -25.43330884 168.69600773 C-25.44142261 165.69707849 -25.45160394 162.69816261 -25.46232414 159.69924164 C-25.49499655 150.29663978 -25.51891447 140.89407089 -25.531138 131.49142003 C-25.54538957 120.67311372 -25.58927233 109.85546011 -25.65863949 99.03736997 C-25.71055089 90.64974883 -25.73532109 82.26231264 -25.73996013 73.87453341 C-25.74334492 68.87615283 -25.75799463 63.87843429 -25.80124092 58.88022614 C-25.84124451 54.17503053 -25.84728833 49.47095222 -25.82834053 44.76563644 C-25.82708358 43.04926251 -25.83757041 41.3328287 -25.86135483 39.61661911 C-26.01966346 27.49145427 -24.44412779 17.40630215 -16.16045475 7.88579178 C-11.91370761 3.87069019 -5.92835 0 0 0 Z " fill="#6EA929" transform="translate(70,168)"/>
<path d="M0 0 C1.43586043 0.46447652 2.87052803 0.93264149 4.3046875 1.40234375 C5.10374512 1.66265381 5.90280273 1.92296387 6.72607422 2.19116211 C15.28990351 5.23732557 19.68455645 12.34819796 23.57777405 20.1697998 C26.01104794 26.85315512 25.4055956 34.09716235 25.36889648 41.11132812 C25.37136711 42.74482983 25.37520818 44.37832995 25.38031006 46.01182556 C25.3886225 49.51761676 25.38786232 53.02324538 25.38012505 56.52903748 C25.36850582 62.0767666 25.38073452 67.62428817 25.39674377 73.17199707 C25.43287417 86.94869755 25.43916818 100.72539265 25.43664551 114.50213623 C25.43493319 125.21621391 25.44208107 135.93012118 25.47662407 146.64415121 C25.49339037 152.15488732 25.49164771 157.66520718 25.47580135 163.17594147 C25.46999327 166.60818634 25.48076411 170.04023494 25.49604797 173.47244453 C25.4997653 175.05907155 25.49669191 176.64573188 25.48617744 178.23232841 C25.36673365 191.01980131 25.36673365 191.01980131 31.66601562 201.84643555 C37.95291204 205.83042981 44.21510472 205.77647579 51.5 205.8125 C52.70398438 205.83763672 53.90796875 205.86277344 55.1484375 205.88867188 C58.09861104 205.94720706 61.04933901 205.97654821 64 206 C64 214.25 64 222.5 64 231 C59.9104589 231.04629669 55.82159867 231.08600292 51.73193359 231.10986328 C50.34518324 231.11982603 48.95845335 231.13340118 47.57177734 231.15087891 C32.68927987 231.33355216 20.93689042 229.95503276 9.5625 219.66015625 C2.66595545 212.33257767 -0.44705741 203.39323119 -0.40625 193.484375 C-0.41708618 192.70612366 -0.42792236 191.92787231 -0.43908691 191.1260376 C-0.48458168 187.8318026 -0.49647135 184.53765703 -0.51123047 181.24316406 C-0.52691928 178.82328354 -0.55989243 176.40405845 -0.59375 173.984375 C-0.59072876 173.24266052 -0.58770752 172.50094604 -0.58459473 171.73675537 C-0.62984565 168.62805265 -0.82213036 166.33980455 -2.27539062 163.56347656 C-4.13272802 161.63254985 -4.13272802 161.63254985 -8 161 C-8 157.04 -8 153.08 -8 149 C-7.030625 148.54625 -6.06125 148.0925 -5.0625 147.625 C-1.92920418 146.34213779 -1.92920418 146.34213779 -1 144 C-0.89439014 142.09976631 -0.85336589 140.19582502 -0.84178162 138.29269409 C-0.82709839 136.47111282 -0.82709839 136.47111282 -0.81211853 134.61273193 C-0.80621398 133.25988809 -0.80040356 131.90704383 -0.79467773 130.55419922 C-0.78510161 129.13520012 -0.77509169 127.7162039 -0.76467896 126.29721069 C-0.73759499 122.43796639 -0.71660437 118.57870982 -0.69667697 114.71942282 C-0.67483892 110.68883103 -0.64743958 106.65827723 -0.62062073 102.62771606 C-0.57066429 94.99212088 -0.52573643 87.35650465 -0.48259836 79.72086823 C-0.43325117 71.02930559 -0.37832372 62.33778106 -0.32291877 53.64625525 C-0.20905344 35.76420553 -0.10222433 17.88211987 0 0 Z " fill="#489220" transform="translate(85,168)"/>
<path d="M0 0 C7.78664972 1.17186147 13.35249786 4.55941505 18.3125 10.75 C25.72959576 22.08469364 25.57895466 32.44825418 25.49609375 45.609375 C25.49624901 47.62420707 25.49774243 49.63903944 25.50050354 51.65386963 C25.5018836 55.8667123 25.48939976 60.07921293 25.46655273 64.29199219 C25.438243 69.65562144 25.44089098 75.01867994 25.45364285 80.38235092 C25.46064635 84.54173536 25.45275658 88.70099119 25.44038582 92.86035919 C25.43591137 94.83603673 25.43549891 96.81172827 25.43945122 98.78740692 C25.45436557 112.80682514 24.81494424 126.14479842 18.875 139.125 C18.577146 139.78822266 18.27929199 140.45144531 17.97241211 141.13476562 C14.84629158 147.79228903 10.79276663 153.41123191 6 159 C5.38640625 159.72574219 4.7728125 160.45148438 4.140625 161.19921875 C-9.53742016 176.07555419 -29.29314355 183.17369551 -49.09463501 184.0977478 C-54.04311204 184.23198137 -58.98825175 184.18501834 -63.9375 184.125 C-65.41080107 184.11493003 -66.88410896 184.10581142 -68.35742188 184.09765625 C-71.90526386 184.07773574 -75.45212074 184.03854063 -79 184 C-79 175.42 -79 166.84 -79 158 C-76.46828125 157.97421875 -73.9365625 157.9484375 -71.328125 157.921875 C-68.83566876 157.88329932 -66.34340869 157.83818976 -63.85107422 157.79248047 C-62.13860678 157.76451263 -60.42601605 157.74317973 -58.71337891 157.72900391 C-42.25169814 157.58468759 -27.46327374 154.77086964 -15 143 C-5.00609251 131.50163332 -0.54680593 118.38800304 -0.56762695 103.30810547 C-0.5574353 102.18498459 -0.54724365 101.06186371 -0.53674316 99.90470886 C-0.50676481 96.22548333 -0.49737022 92.54651881 -0.48828125 88.8671875 C-0.47142337 86.30314275 -0.45327165 83.73910621 -0.43388367 81.17507935 C-0.39133058 75.13699679 -0.36173961 69.0989878 -0.33856028 63.06081116 C-0.31141437 56.18034101 -0.26750914 49.30000872 -0.22227156 42.41963744 C-0.12967567 28.2798334 -0.05788093 14.13998575 0 0 Z " fill="#6EA829" transform="translate(442,105)"/>
<path d="M0 0 C0.07032205 14.13493299 0.1229012 28.26983855 0.15543652 42.40491104 C0.17105609 48.9692214 0.19222664 55.53341378 0.22631836 62.09765625 C0.25904396 68.43893332 0.27688087 74.78009729 0.28463173 81.12145233 C0.29015157 83.53421558 0.30093019 85.94697303 0.31719017 88.35968781 C0.3391397 91.75327166 0.34195959 95.14639504 0.34057617 98.54003906 C0.351362 99.52547699 0.36214783 100.51091492 0.3732605 101.5262146 C0.32082326 113.50456912 -2.42767722 123.49895676 -10.25 132.625 C-22.25946882 142.99681398 -33.80302984 144.47012631 -49.1875 144.1875 C-50.63084527 144.17241277 -52.07420596 144.15873157 -53.51757812 144.14648438 C-57.01242341 144.11640825 -60.50507313 144.05764388 -64 144 C-64 135.42 -64 126.84 -64 118 C-62.02515625 117.96261719 -60.0503125 117.92523438 -58.015625 117.88671875 C-55.42706409 117.82106684 -52.83852328 117.75461924 -50.25 117.6875 C-48.94804687 117.66494141 -47.64609375 117.64238281 -46.3046875 117.61914062 C-45.05429687 117.58369141 -43.80390625 117.54824219 -42.515625 117.51171875 C-41.36352539 117.48553467 -40.21142578 117.45935059 -39.02441406 117.43237305 C-35.74463041 116.96349213 -34.47052891 116.11132609 -32 114 C-31.34 114 -30.68 114 -30 114 C-29.31379969 112.67661368 -28.65213539 111.34050052 -28 110 C-27.6520639 109.28942444 -27.30412781 108.57884888 -26.94564819 107.84674072 C-25.75027389 104.24823472 -25.7233227 100.88680933 -25.74462891 97.13964844 C-25.73919823 95.97517937 -25.73919823 95.97517937 -25.73365784 94.78718567 C-25.72678186 93.10665814 -25.72425502 91.42610837 -25.72560501 89.74556732 C-25.7265734 87.07935105 -25.7135899 84.41353447 -25.69662476 81.74737549 C-25.6504554 74.1686921 -25.62576307 66.59004971 -25.61914062 59.01123047 C-25.61410723 54.36928252 -25.58976365 49.72775152 -25.55381393 45.08594513 C-25.54405695 43.32386028 -25.54166145 41.56171777 -25.54698563 39.79961395 C-25.59759656 22.22113543 -25.59759656 22.22113543 -21 15 C-20.54238281 14.20207031 -20.08476562 13.40414062 -19.61328125 12.58203125 C-14.95832489 6.24961314 -8.15441521 0 0 0 Z " fill="#479120" transform="translate(427,105)"/>
</svg>
